<?xml version="1.0" standalone="no"?>
<!DOCTYPE svg PUBLIC "-//W3C//DTD SVG 20010904//EN"
 "http://www.w3.org/TR/2001/REC-SVG-20010904/DTD/svg10.dtd">
<svg version="1.0" xmlns="http://www.w3.org/2000/svg"
 width="500.000000pt" height="500.000000pt" viewBox="0 0 500.000000 500.000000"
 preserveAspectRatio="xMidYMid meet">
<metadata>
Created by potrace 1.14, written by Peter Selinger 2001-2017
</metadata>
<g transform="translate(0.000000,500.000000) scale(0.100000,-0.100000)"
fill="#000000" stroke="none">
<path d="M2275 3826 c-269 -52 -475 -152 -668 -323 -202 -179 -345 -417 -414
-689 -26 -101 -28 -123 -28 -314 0 -190 2 -213 27 -313 128 -504 498 -871
1008 -998 84 -21 118 -24 300 -24 190 0 213 2 311 27 502 127 870 494 997 995
25 100 27 123 27 313 0 190 -2 213 -28 313 -126 498 -495 868 -991 994 -86 21
-128 26 -286 29 -128 2 -207 -1 -255 -10z m625 -831 l0 -25 -422 -2 -423 -3
-3 -247 -2 -247 347 -3 c338 -3 350 -4 408 -27 125 -49 193 -160 182 -297 -9
-119 -74 -202 -194 -247 -55 -21 -76 -22 -425 -25 l-368 -3 0 575 0 576 450 0
450 0 0 -25z"/>
<path d="M2052 2173 l3 -248 320 0 c285 0 327 2 382 19 118 36 173 108 173
226 0 79 -23 133 -73 177 -70 61 -105 66 -475 71 l-332 3 2 -248z"/>
</g>
</svg>
